<?xml version="1.0" encoding="utf-8"?>
<svg xmlns="http://www.w3.org/2000/svg" viewBox="16.5 16.7 68.2 60.8" width="682" height="608">
<style type="text/css">
	.st0{fill:#00809E;}
	.st1{fill:#B40053;}
</style>
	<g>
		<path class="st0" d="M50.6,73.5c-2.2,0-3.9-1.8-3.9-3.9v-7.3c0-11.4,8.8-19.4,21.5-19.4h2.7c2.2,0,3.9,1.8,3.9,3.9
			s-1.8,3.9-3.9,3.9h-2.7c-8.4,0-13.6,4.4-13.6,11.5v7.3C54.5,71.8,52.8,73.5,50.6,73.5z"/>
		<g>
			<path class="st1" d="M50.6,73.5c-2.2,0-3.9-1.8-3.9-3.9v-7.3c0-7.1-5.2-11.5-13.6-11.5h-2.7c-2.2,0-3.9-1.8-3.9-3.9
				s1.8-3.9,3.9-3.9h2.7c12.6,0,21.5,8,21.5,19.4v7.3C54.5,71.8,52.8,73.5,50.6,73.5z"/>
			<path class="st1" d="M30.4,55.2V38.3l-9.9,8.5L30.4,55.2z"/>
		</g>
		<path class="st0" d="M80.7,46.8l-9.9-8.5v16.9L80.7,46.8z"/>
		<path class="st1" d="M50.5,42.8C50.5,42.8,50.5,42.8,50.5,42.8c-1.1,0-2.1-0.4-2.8-1.2l-8.8-9c-1.5-1.6-1.5-4.1,0.1-5.6
			c1.6-1.5,4.1-1.5,5.6,0.1l6,6.1L61.9,22c1.5-1.5,4-1.5,5.6,0c1.5,1.5,1.5,4,0,5.6L53.3,41.7C52.6,42.4,51.6,42.8,50.5,42.8z"/>
	</g>
</svg>
